<svg width="100" height="100" viewBox="0 0 100 100" xmlns="http://www.w3.org/2000/svg">
  <defs>
    <linearGradient id="mailGradient" x1="0%" y1="0%" x2="100%" y2="100%">
      <stop offset="0%" style="stop-color:#4F46E5;stop-opacity:1" />
      <stop offset="100%" style="stop-color:#7C3AED;stop-opacity:1" />
    </linearGradient>
    <linearGradient id="chartGradient" x1="0%" y1="0%" x2="100%" y2="100%">
      <stop offset="0%" style="stop-color:#10B981;stop-opacity:1" />
      <stop offset="100%" style="stop-color:#059669;stop-opacity:1" />
    </linearGradient>
  </defs>
  
  <!-- Background circle -->
  <circle cx="50" cy="50" r="48" fill="url(#mailGradient)" stroke="#E5E7EB" stroke-width="2"/>
  
  <!-- Mail envelope -->
  <rect x="20" y="30" width="40" height="28" rx="3" ry="3" fill="white" stroke="none"/>
  <path d="M20 35 L40 48 L60 35" stroke="url(#mailGradient)" stroke-width="2" fill="none" stroke-linecap="round" stroke-linejoin="round"/>
  
  <!-- Insight chart bars -->
  <rect x="65" y="45" width="4" height="15" fill="url(#chartGradient)" rx="2"/>
  <rect x="71" y="40" width="4" height="20" fill="url(#chartGradient)" rx="2"/>
  <rect x="77" y="35" width="4" height="25" fill="url(#chartGradient)" rx="2"/>
  
  <!-- Analytics line -->
  <path d="M65 70 Q72 65 79 62" stroke="url(#chartGradient)" stroke-width="2" fill="none" stroke-linecap="round"/>
  <circle cx="65" cy="70" r="2" fill="url(#chartGradient)"/>
  <circle cx="72" cy="65" r="2" fill="url(#chartGradient)"/>
  <circle cx="79" cy="62" r="2" fill="url(#chartGradient)"/>
  
  <!-- Sparkle/insight indicator -->
  <path d="M25 20 L27 25 L32 23 L27 28 L25 33 L23 28 L18 23 L23 25 Z" fill="white" opacity="0.8"/>
</svg>